<svg width="267" height="48" viewBox="0 0 267 48" fill="none" xmlns="http://www.w3.org/2000/svg">
<path d="M66.595 37.99V31.41H68.45C68.8933 31.3633 69.3017 31.0833 69.675 30.57C70.0483 30.0567 70.2817 29.38 70.375 28.54C70.4683 27.6767 70.5733 26.7083 70.69 25.635C70.8067 24.5383 70.9233 23.4183 71.04 22.275C71.1567 21.1083 71.25 19.965 71.32 18.845C71.4133 17.725 71.495 16.6867 71.565 15.73C71.635 14.7733 71.6817 13.9683 71.705 13.315H82.345V31.41H85.845V37.99H82.485V34.77H69.92V37.99H66.595ZM73.42 31.41H78.355V16.185H75.52C75.3333 18.1683 75.1583 20.1517 74.995 22.135C74.855 24.1183 74.7033 26.1017 74.54 28.085C74.47 28.715 74.3533 29.3683 74.19 30.045C74.05 30.6983 73.7933 31.1533 73.42 31.41ZM93.052 34.28C91.8853 34.28 90.882 34.14 90.042 33.86C89.2253 33.58 88.607 33.0317 88.187 32.215C87.767 31.375 87.557 30.15 87.557 28.54V21.19C87.557 19.3933 88.012 18.145 88.922 17.445C89.832 16.7217 91.2087 16.36 93.052 16.36C94.8953 16.36 96.2603 16.7217 97.147 17.445C98.057 18.145 98.512 19.3933 98.512 21.19V28.54C98.512 30.15 98.302 31.3633 97.882 32.18C97.4853 32.9967 96.8787 33.5567 96.062 33.86C95.2453 34.14 94.242 34.28 93.052 34.28ZM93.052 31.9C93.5653 31.9 93.9387 31.76 94.172 31.48C94.4053 31.1767 94.522 30.64 94.522 29.87V20.77C94.522 20.0467 94.4053 19.5333 94.172 19.23C93.962 18.9033 93.5887 18.74 93.052 18.74C92.5387 18.74 92.1537 18.8917 91.897 19.195C91.6637 19.4983 91.547 20.0233 91.547 20.77V29.87C91.547 30.64 91.6637 31.1767 91.897 31.48C92.1537 31.76 92.5387 31.9 93.052 31.9ZM100.685 34V16.675H104.675V22.695C105.305 21.4583 106.052 20.3967 106.915 19.51C107.802 18.6 108.747 17.9233 109.75 17.48C110.754 17.0133 111.734 16.8267 112.69 16.92V19.545C112.13 19.6617 111.629 19.8717 111.185 20.175C110.742 20.455 110.357 20.77 110.03 21.12C109.82 21.3533 109.622 21.5983 109.435 21.855C109.249 22.0883 109.074 22.345 108.91 22.625L112.62 34H108.035L105.41 27.035C105.27 27.245 105.13 27.49 104.99 27.77C104.874 28.0267 104.769 28.2367 104.675 28.4V34H100.685ZM117.184 34V19.545H113.894V16.675H124.569V19.545H121.244V34H117.184ZM131.402 34.28C130.235 34.28 129.232 34.14 128.392 33.86C127.575 33.58 126.957 33.0317 126.537 32.215C126.117 31.375 125.907 30.15 125.907 28.54V21.19C125.907 19.3933 126.362 18.145 127.272 17.445C128.182 16.7217 129.558 16.36 131.402 16.36C133.245 16.36 134.61 16.7217 135.497 17.445C136.407 18.145 136.862 19.3933 136.862 21.19V28.54C136.862 30.15 136.652 31.3633 136.232 32.18C135.835 32.9967 135.228 33.5567 134.412 33.86C133.595 34.14 132.592 34.28 131.402 34.28ZM131.402 31.9C131.915 31.9 132.288 31.76 132.522 31.48C132.755 31.1767 132.872 30.64 132.872 29.87V20.77C132.872 20.0467 132.755 19.5333 132.522 19.23C132.312 18.9033 131.938 18.74 131.402 18.74C130.888 18.74 130.503 18.8917 130.247 19.195C130.013 19.4983 129.897 20.0233 129.897 20.77V29.87C129.897 30.64 130.013 31.1767 130.247 31.48C130.503 31.76 130.888 31.9 131.402 31.9ZM139.175 38.06V16.675H143.13V18.04C143.363 17.6433 143.69 17.27 144.11 16.92C144.53 16.57 145.218 16.395 146.175 16.395C146.992 16.395 147.692 16.535 148.275 16.815C148.858 17.0717 149.313 17.5033 149.64 18.11C149.967 18.6933 150.13 19.4983 150.13 20.525V28.925C150.13 30.2083 149.99 31.2467 149.71 32.04C149.43 32.81 148.998 33.37 148.415 33.72C147.832 34.0467 147.085 34.21 146.175 34.21C145.358 34.21 144.705 34.07 144.215 33.79C143.748 33.4867 143.398 33.1483 143.165 32.775V38.06H139.175ZM144.67 31.97C145.02 31.97 145.288 31.9233 145.475 31.83C145.662 31.7133 145.802 31.5617 145.895 31.375C146.012 31.1883 146.082 30.9783 146.105 30.745C146.128 30.4883 146.14 30.2083 146.14 29.905V20.945C146.14 20.6417 146.128 20.3617 146.105 20.105C146.082 19.8483 146.012 19.6267 145.895 19.44C145.802 19.2533 145.662 19.1133 145.475 19.02C145.288 18.9267 145.02 18.88 144.67 18.88C144.343 18.88 144.075 18.9383 143.865 19.055C143.678 19.1483 143.527 19.2883 143.41 19.475C143.317 19.6383 143.247 19.825 143.2 20.035C143.177 20.245 143.165 20.4317 143.165 20.595V30.01C143.165 30.4067 143.2 30.7567 143.27 31.06C143.363 31.3633 143.515 31.5967 143.725 31.76C143.935 31.9 144.25 31.97 144.67 31.97ZM158.456 34V13.315H162.516V21.785H165.911V13.315H169.971V34H165.911V24.795H162.516V34H158.456ZM172.599 34V16.675H176.099V26.825L180.089 16.675H183.589V34H180.089V22.905C179.366 24.7717 178.654 26.6267 177.954 28.47C177.254 30.29 176.543 32.1333 175.819 34H172.599ZM185.861 34V16.675H189.851V22.695C190.481 21.4583 191.228 20.3967 192.091 19.51C192.978 18.6 193.923 17.9233 194.926 17.48C195.929 17.0133 196.909 16.8267 197.866 16.92V19.545C197.306 19.6617 196.804 19.8717 196.361 20.175C195.918 20.455 195.533 20.77 195.206 21.12C194.996 21.3533 194.798 21.5983 194.611 21.855C194.424 22.0883 194.249 22.345 194.086 22.625L197.796 34H193.211L190.586 27.035C190.446 27.245 190.306 27.49 190.166 27.77C190.049 28.0267 189.944 28.2367 189.851 28.4V34H185.861ZM205.23 34.28C204.063 34.28 203.06 34.14 202.22 33.86C201.403 33.58 200.785 33.0317 200.365 32.215C199.945 31.375 199.735 30.15 199.735 28.54V21.19C199.735 19.3933 200.19 18.145 201.1 17.445C202.01 16.7217 203.386 16.36 205.23 16.36C207.073 16.36 208.438 16.7217 209.325 17.445C210.235 18.145 210.69 19.3933 210.69 21.19V28.54C210.69 30.15 210.48 31.3633 210.06 32.18C209.663 32.9967 209.056 33.5567 208.24 33.86C207.423 34.14 206.42 34.28 205.23 34.28ZM205.23 31.9C205.743 31.9 206.116 31.76 206.35 31.48C206.583 31.1767 206.7 30.64 206.7 29.87V20.77C206.7 20.0467 206.583 19.5333 206.35 19.23C206.14 18.9033 205.766 18.74 205.23 18.74C204.716 18.74 204.331 18.8917 204.075 19.195C203.841 19.4983 203.725 20.0233 203.725 20.77V29.87C203.725 30.64 203.841 31.1767 204.075 31.48C204.331 31.76 204.716 31.9 205.23 31.9ZM212.163 34V31.9C212.606 31.9 213.015 31.6433 213.388 31.13C213.761 30.6167 213.971 29.9867 214.018 29.24L215.103 16.675H225.813V34H221.718V19.51H219.163L218.078 30.29C218.031 30.6633 217.985 31.0717 217.938 31.515C217.891 31.935 217.763 32.3317 217.553 32.705C217.343 33.0783 217.016 33.3933 216.573 33.65C216.153 33.8833 215.535 34 214.718 34H212.163ZM231.328 34.28C230.721 34.28 230.15 34.1983 229.613 34.035C229.1 33.8717 228.668 33.5333 228.318 33.02C227.991 32.4833 227.828 31.7017 227.828 30.675V28.365C227.828 27.2683 228.143 26.3817 228.773 25.705C229.426 25.005 230.441 24.41 231.818 23.92C232.541 23.6167 233.113 23.3483 233.533 23.115C233.953 22.8817 234.256 22.6017 234.443 22.275C234.63 21.925 234.723 21.4583 234.723 20.875V19.93C234.723 19.5567 234.665 19.2767 234.548 19.09C234.431 18.88 234.256 18.7283 234.023 18.635C233.813 18.5417 233.568 18.495 233.288 18.495C232.681 18.495 232.285 18.705 232.098 19.125C231.911 19.5217 231.818 20.1983 231.818 21.155V22.625H228.213V20.77C228.213 19.9067 228.33 19.1483 228.563 18.495C228.82 17.8183 229.31 17.2933 230.033 16.92C230.756 16.5233 231.841 16.325 233.288 16.325C234.758 16.325 235.89 16.465 236.683 16.745C237.476 17.0017 238.025 17.4217 238.328 18.005C238.631 18.565 238.783 19.335 238.783 20.315V34H234.793V32.075C234.606 32.7517 234.175 33.2883 233.498 33.685C232.845 34.0817 232.121 34.28 231.328 34.28ZM233.043 31.655C233.673 31.655 234.105 31.4217 234.338 30.955C234.595 30.465 234.723 29.7883 234.723 28.925V24.48C234.583 24.7133 234.35 24.9233 234.023 25.11C233.696 25.2733 233.37 25.46 233.043 25.67C232.6 25.9733 232.261 26.2883 232.028 26.615C231.795 26.9183 231.678 27.35 231.678 27.91V29.695C231.678 30.185 231.736 30.5817 231.853 30.885C231.97 31.165 232.133 31.3633 232.343 31.48C232.553 31.5967 232.786 31.655 233.043 31.655ZM246.452 34.28C245.239 34.28 244.212 34.1517 243.372 33.895C242.555 33.615 241.937 33.0783 241.517 32.285C241.097 31.4683 240.887 30.2433 240.887 28.61V20.805C240.887 19.1017 241.342 17.935 242.252 17.305C243.162 16.675 244.539 16.36 246.382 16.36C248.202 16.36 249.567 16.675 250.477 17.305C251.387 17.935 251.842 19.1017 251.842 20.805V25.53H244.877V30.255C244.877 30.955 244.982 31.445 245.192 31.725C245.425 32.005 245.834 32.145 246.417 32.145C246.954 32.145 247.315 32.0167 247.502 31.76C247.712 31.48 247.817 30.9783 247.817 30.255V27.49H251.842V28.575C251.842 30.2083 251.632 31.4333 251.212 32.25C250.792 33.0667 250.174 33.615 249.357 33.895C248.564 34.1517 247.595 34.28 246.452 34.28ZM244.877 23.71H247.817V20.595C247.817 19.9183 247.712 19.44 247.502 19.16C247.315 18.88 246.942 18.74 246.382 18.74C245.822 18.74 245.425 18.88 245.192 19.16C244.982 19.44 244.877 19.9183 244.877 20.595V23.71ZM253.844 34V16.675H261.089C262.466 16.675 263.504 16.9783 264.204 17.585C264.928 18.1917 265.289 19.0667 265.289 20.21V21.4C265.289 22.4267 265.009 23.2667 264.449 23.92C263.913 24.5733 263.119 24.9467 262.069 25.04C263.096 25.04 263.959 25.355 264.659 25.985C265.359 26.5917 265.709 27.5717 265.709 28.925V29.66C265.709 30.8033 265.499 31.69 265.079 32.32C264.683 32.95 264.123 33.3933 263.399 33.65C262.676 33.8833 261.801 34 260.774 34H253.844ZM258.079 31.97H259.724C260.051 31.97 260.331 31.9233 260.564 31.83C260.798 31.7133 260.973 31.5033 261.089 31.2C261.229 30.8967 261.299 30.465 261.299 29.905V28.295C261.299 27.8517 261.229 27.5133 261.089 27.28C260.973 27.0233 260.786 26.8367 260.529 26.72C260.273 26.6033 259.969 26.545 259.619 26.545H258.079V31.97ZM258.079 23.92H259.619C260.156 23.92 260.553 23.7567 260.809 23.43C261.089 23.1033 261.229 22.5783 261.229 21.855V20.35C261.229 19.8833 261.101 19.5217 260.844 19.265C260.611 19.0083 260.273 18.88 259.829 18.88H258.079V23.92Z" fill="white"/>
<circle cx="27.3657" cy="25.8447" r="2.26709" fill="#00B700"/>
<circle cx="43.6897" cy="3.40064" r="3.40064" fill="#00B700"/>
<circle cx="10.3635" cy="3.40064" r="3.40064" fill="#00B700"/>
<path fill-rule="evenodd" clip-rule="evenodd" d="M12.5531 9.30442C15.2073 9.50936 15.9919 10.0855 17.3713 12.8432C17.9722 14.0444 18.6606 15.743 19.8848 18.8158C20.7917 21.0919 21.2354 24.5941 21.3774 25.4849C21.5665 26.6704 21.0184 26.2132 20.7917 25.4849C20.5856 24.8227 19.2047 21.8886 18.6379 19.7263C16.3708 16.6535 15.0014 14.7188 14.8972 14.7188C14.5653 14.7188 14.4349 17.6736 14.4579 22.6397C15.7241 26.1108 15.1904 32.5293 15.4381 40.6135C15.6388 47.1628 15.5455 47.6804 14.164 47.6804C13.5663 47.6804 13.2905 47.5149 13.1148 47.0512C12.8154 46.2608 12.1566 41.0498 11.5941 35.0245C11.3566 32.4797 11.0957 30.1222 11.0146 29.7852C10.7691 28.7657 10.3835 29.098 10.3832 30.3296C10.383 30.9659 10.1443 33.5684 9.85303 36.1132C9.56176 38.658 9.20676 42.123 9.06411 43.8129C8.92146 45.5031 8.65677 47.0645 8.47615 47.2831C8.29526 47.5016 7.81116 47.6804 7.40029 47.6804C5.97812 47.6804 5.93988 47.4453 6.16552 40.116C6.3695 33.492 5.95627 26.8703 7.31652 22.8673C7.32884 18.3734 6.46264 14.715 6.28229 14.7188C6.09896 14.7229 3.90135 16.986 3.10836 18.8158C0.742138 24.2747 0.855316 26.2263 0.387859 26.13C-0.845001 25.8263 1.21912 19.0434 1.63475 17.7916C2.31488 15.743 4.31837 11.7591 5.02837 10.9954C6.42262 9.49548 8.62287 9.00095 12.5531 9.30442ZM47.72 9.68496C47.8834 10.0527 48.4502 11.8736 49.0749 13.4669C49.2823 13.9959 50.4327 17.3363 51.0573 18.9296C53.0981 24.1348 55.0322 26.4511 54.2025 26.4511C53.7249 26.4511 50.0372 21.2964 49.6971 20.0677C48.3807 18.1098 47.3261 14.5785 47.2033 14.6533C47.0804 14.7282 47.0883 14.7082 47.1106 14.7831C47.1328 14.8579 47.3308 19.7727 47.72 22.3175C49.0749 25.1159 49.6965 28.5795 50.1464 30.8739C50.289 31.6011 50.2587 31.6224 49.0749 31.6224C47.8764 31.6224 47.8542 31.6387 47.6983 32.643C47.6109 33.2045 47.3465 36.7223 47.1106 40.4608C46.8746 44.1991 46.623 47.353 46.5514 47.4692C46.4798 47.5854 46.2002 47.6804 45.9298 47.6804C45.5322 47.6804 45.4058 47.3816 45.2675 46.1154C45.0771 44.3736 44.2852 33.1955 44.2841 32.2348C44.2839 31.885 44.1171 31.6224 43.8949 31.6224C43.2072 31.6224 43.016 32.9217 42.6529 40.0597C42.2875 47.2382 42.2173 47.6804 41.44 47.6804C40.7056 47.6804 40.6595 47.3408 40.1841 38.4266C40.0046 35.0585 39.7402 32.1498 39.5967 31.9626C39.453 31.7756 38.8525 31.6224 38.2624 31.6224C37.2367 31.6224 37.1958 31.5894 37.337 30.8739C37.4184 30.4624 37.548 29.6968 37.6253 29.1728C37.8659 27.5395 38.6024 25.1159 39.5967 22.3175C40.1071 19.2869 40.1649 15.2239 40.4136 14.5555C40.4136 14.5555 40.4979 14.2333 40.3027 14.3087C40.1071 14.3838 38.8151 18.4744 37.6253 20.6367C36.7725 22.1868 36.4346 22.4576 35.5418 23.8233C35.1068 24.1937 33.048 26.229 33.048 25.6893C33.048 25.3846 35.0267 23.1288 36.2079 20.1815C36.7747 18.1098 37.9082 15.174 38.2624 13.8083C39.2309 11.577 39.1551 10.4205 39.9486 9.48369C40.5015 9.16372 41.4371 9.42499 42.4424 9.35121C42.8802 9.31908 43.3741 9.3053 43.9359 9.30551C44.4588 9.30568 44.8995 9.30321 45.2763 9.30366C46.6374 9.30528 47.4548 9.08834 47.72 9.68496ZM33.7281 26.8459C33.7281 27.5777 33.6576 28.9818 32.3538 30.3739C31.7786 30.9882 31.6119 31.2814 30.9276 31.7855C30.6058 32.0226 30.323 32.3117 30.1237 32.6582C29.9464 32.9667 29.853 33.3163 29.853 33.6722V40.3177C29.9845 47.6265 29.9813 47.6804 29.4234 47.6804C29.1145 47.6804 28.7988 47.466 28.7224 47.2041C28.472 46.3498 27.7748 42.679 27.5849 41.2164C27.4827 40.4306 27.314 39.7875 27.2099 39.7875C27.1057 39.7875 26.8728 40.9205 26.6919 42.3051C26.1747 46.2679 25.7872 47.5277 25.0517 47.635L24.4298 47.7256L24.6202 41.1029C24.7463 36.7209 24.7661 33.607 24.5798 33.1291C24.5272 32.994 24.419 32.5363 24.1923 32.3086C23.7389 31.7396 23.3779 31.2163 22.6899 30.5261C21.1191 28.9497 21.2163 27.4869 21.2163 26.8459C21.2163 26.3511 22.2351 28.1461 23.3988 29.3497C24.3902 30.1302 24.664 30.5654 25.8926 30.568C26.4171 30.5691 28.02 30.5461 28.3864 30.568C29.7467 30.568 30.3859 30.8698 32.0138 29.1728C33.2316 27.9033 33.7281 26.0618 33.7281 26.8459Z" fill="#00B700"/>
</svg>
