<svg width="15" height="17" viewBox="0 0 15 17" fill="none" xmlns="http://www.w3.org/2000/svg">
<path d="M14.0198 10.2625L11.0263 8.49649L13.942 6.76077C14.2211 6.60507 14.4561 6.3794 14.6245 6.10533C14.8352 5.75847 14.925 5.35003 14.8796 4.94534C14.8342 4.54064 14.6563 4.16305 14.3742 3.87295C14.0922 3.58286 13.7223 3.397 13.3238 3.34512C12.9253 3.29323 12.5211 3.3783 12.1759 3.58673L9.2961 5.31637V1.82068C9.2961 1.3378 9.10687 0.874706 8.77004 0.533264C8.4332 0.191821 7.97636 0 7.5 0C7.02364 0 6.5668 0.191821 6.22996 0.533264C5.89313 0.874706 5.7039 1.3378 5.7039 1.82068V5.31637L2.8002 3.58673C2.59607 3.44722 2.36583 3.35173 2.12377 3.3062C1.88171 3.26067 1.633 3.26607 1.39309 3.32207C1.15318 3.37807 0.927181 3.48346 0.729136 3.63171C0.531092 3.77996 0.365229 3.9679 0.241845 4.18386C0.118462 4.39981 0.0401935 4.63918 0.0119004 4.88708C-0.0163927 5.13499 0.00589359 5.38615 0.0773753 5.62495C0.148857 5.86376 0.268008 6.08513 0.427429 6.2753C0.58685 6.46547 0.783136 6.62039 1.0041 6.73043L3.9976 8.49649L1.03404 10.2322C0.754964 10.3879 0.519966 10.6136 0.351517 10.8876C0.143782 11.2345 0.0563038 11.6417 0.10297 12.0447C0.149636 12.4477 0.327772 12.8234 0.609096 13.1121C0.890421 13.4007 1.25881 13.5858 1.65578 13.638C2.05274 13.6902 2.45553 13.6065 2.8002 13.4002L5.7039 11.6766V15.1116C5.68975 15.4996 5.7983 15.882 6.01372 16.2029C6.22913 16.5239 6.54013 16.7667 6.9013 16.8959C7.17276 16.9932 7.46332 17.0229 7.74848 16.9825C8.03364 16.9421 8.30504 16.8328 8.53982 16.6639C8.77459 16.4949 8.96585 16.2712 9.09747 16.0116C9.22909 15.752 9.29721 15.4642 9.2961 15.1723V11.6766L12.1998 13.4062C12.4039 13.5458 12.6342 13.6412 12.8762 13.6868C13.1183 13.7323 13.367 13.7269 13.6069 13.6709C13.8468 13.6149 14.0728 13.5095 14.2709 13.3613C14.4689 13.213 14.6348 13.0251 14.7582 12.8091C14.8815 12.5932 14.9598 12.3538 14.9881 12.1059C15.0164 11.858 14.9941 11.6068 14.9226 11.368C14.8511 11.1292 14.732 10.9078 14.5726 10.7177C14.4132 10.5275 14.2169 10.3726 13.9959 10.2625H14.0198Z" fill="#00B700"/>
</svg>
